HIERARCHY
ROOT joint_Root
{
	OFFSET 0.0 0.0 0.0
	CHANNELS 6 Xposition Yposition Zposition Zrotation Xrotation Yrotation 
	JOINT Hips
	{
		OFFSET -17.1583 93.1646 452.98
		CHANNELS 6 Xposition Yposition Zposition Zrotation Xrotation Yrotation 
		JOINT Spine
		{
			OFFSET 15.7357 0.0 0.0
			CHANNELS 6 Xposition Yposition Zposition Zrotation Xrotation Yrotation 
			JOINT Chest
			{
				OFFSET 8.98455 -0.406207 0.0
				CHANNELS 6 Xposition Yposition Zposition Zrotation Xrotation Yrotation 
				JOINT Neck
				{
					OFFSET 16.3773 0.0 0.0
					CHANNELS 6 Xposition Yposition Zposition Zrotation Xrotation Yrotation 
					JOINT Head
					{
						OFFSET 6.45672 0.0 0.0
						CHANNELS 6 Xposition Yposition Zposition Zrotation Xrotation Yrotation 
						End Site
						{
							OFFSET 0.0 0.0 0.0
						}
					}
				}
				JOINT Shoulder_L
				{
					OFFSET 12.9942 -0.242716 4.98039
					CHANNELS 6 Xposition Yposition Zposition Zrotation Xrotation Yrotation 
					JOINT UpperArm_L
					{
						OFFSET 5.34809 0.0 0.0
						CHANNELS 6 Xposition Yposition Zposition Zrotation Xrotation Yrotation 
						JOINT LowerArm_L
						{
							OFFSET 24.3286 1.87007e-05 0.0
							CHANNELS 6 Xposition Yposition Zposition Zrotation Xrotation Yrotation 
							JOINT Hand_L
							{
								OFFSET 22.2916 0.0 0.0
								CHANNELS 6 Xposition Yposition Zposition Zrotation Xrotation Yrotation 
								End Site
								{
									OFFSET 0.0 0.0 0.0
								}
							}
						}
					}
				}
				JOINT Shoulder_R
				{
					OFFSET 12.9945 -0.242716 -4.98039
					CHANNELS 6 Xposition Yposition Zposition Zrotation Xrotation Yrotation 
					JOINT UpperArm_R
					{
						OFFSET -5.34813 0.0 0.0
						CHANNELS 6 Xposition Yposition Zposition Zrotation Xrotation Yrotation 
						JOINT LowerArm_R
						{
							OFFSET -24.3289 0.000322201 0.0
							CHANNELS 6 Xposition Yposition Zposition Zrotation Xrotation Yrotation 
							JOINT Hand_R
							{
								OFFSET -22.2915 -0.000108084 0.0
								CHANNELS 6 Xposition Yposition Zposition Zrotation Xrotation Yrotation 
								End Site
								{
									OFFSET 0.0 0.0 0.0
								}
							}
						}
					}
				}
			}
		}
		JOINT UpperLeg_L
		{
			OFFSET -2.19248 -6.46944 0.0
			CHANNELS 6 Xposition Yposition Zposition Zrotation Xrotation Yrotation 
			JOINT LowerLeg_L
			{
				OFFSET 39.0811 0.0 -1.23785e-05
				CHANNELS 6 Xposition Yposition Zposition Zrotation Xrotation Yrotation 
				JOINT Foot_L
				{
					OFFSET 40.9854 0.0 -1.26872e-05
					CHANNELS 6 Xposition Yposition Zposition Zrotation Xrotation Yrotation 
					JOINT Toes_L
					{
						OFFSET 11.7543 0.0 0.0
						CHANNELS 6 Xposition Yposition Zposition Zrotation Xrotation Yrotation 
						End Site
						{
							OFFSET 0.0 0.0 0.0
						}
					}
				}
			}
		}
		JOINT UpperLeg_R
		{
			OFFSET -2.19251 6.46944 0.0
			CHANNELS 6 Xposition Yposition Zposition Zrotation Xrotation Yrotation 
			JOINT LowerLeg_R
			{
				OFFSET -39.0811 -0.00228153 -0.0401928
				CHANNELS 6 Xposition Yposition Zposition Zrotation Xrotation Yrotation 
				JOINT Foot_R
				{
					OFFSET -40.9854 0.0 0.0
					CHANNELS 6 Xposition Yposition Zposition Zrotation Xrotation Yrotation 
					JOINT Toes_R
					{
						OFFSET -11.7543 0.0 0.0
						CHANNELS 6 Xposition Yposition Zposition Zrotation Xrotation Yrotation 
						End Site
						{
							OFFSET 0.0 0.0 0.0
						}
					}
				}
			}
		}
	}
}
MOTION
Frames:	6
Frame Time:	0.0333333
0.000000 0.000000 0.000000 0.000000 0.000000 -0.000000 -1.253230 92.844000 -2.003980 86.805200 0.384669 1.016150 15.735700 0.000005 -0.000001 80.932200 87.808500 -78.798100 8.984550 -0.406207 -0.000000 -3.417700 -0.898565 4.242540 16.377300 -0.000001 -0.000001 3.840380 3.934120 -1.661490 6.456720 -0.000001 -0.000000 4.676750 4.986680 -5.919710 12.994200 -0.242716 4.980390 -92.902100 8.975060 -71.998400 5.348090 -0.000007 -0.000001 -72.563400 20.949800 3.207230 24.328600 0.000019 0.000005 14.532300 28.993000 -28.137800 22.291600 -0.000001 0.000005 -3.894210 5.106320 4.968550 12.994500 -0.242716 -4.980390 88.528900 4.866340 -73.157900 -5.348130 -0.000001 -0.000004 -70.304800 27.372900 -3.477310 -24.328900 0.000322 -0.000009 2.498680 8.386290 -16.664000 -22.291500 -0.000108 -0.000004 0.799912 5.273020 0.816482 -2.192480 -6.469440 -0.000000 -175.921000 0.310880 -4.948800 39.081100 -0.000007 -0.000012 0.231000 -0.576828 21.824900 40.985400 -0.000006 -0.000013 2.117450 8.759160 -71.745600 11.754300 -0.000000 0.000003 0.000325 0.161955 -10.008300 -2.192510 6.469440 -0.000001 -174.095000 8.422880 -179.395000 -39.081100 -0.002282 -0.040193 0.065617 -0.271031 12.941900 -40.985400 0.000008 0.000006 2.367550 1.135390 -68.968400 -11.754300 -0.000006 -0.000006 -0.010701 0.276474 -5.339500
0.000000 0.000000 0.000000 0.000000 0.000000 -0.000000 -1.220020 92.847100 -1.965140 86.785600 0.328129 0.935900 15.735700 0.000005 -0.000001 80.816000 87.820200 -78.658300 8.984550 -0.406207 -0.000000 -3.441780 -0.906362 4.289340 16.377300 -0.000001 -0.000001 3.797940 3.947180 -1.675630 6.456720 -0.000001 -0.000000 4.601520 4.968970 -6.005010 12.994200 -0.242716 4.980390 -92.911600 8.983920 -71.959600 5.348090 -0.000007 -0.000001 -72.488000 19.787900 3.496580 24.328600 0.000019 0.000005 14.953800 28.542300 -29.204500 22.291600 -0.000001 0.000005 -3.801700 5.103480 5.033770 12.994500 -0.242716 -4.980390 88.527400 4.871840 -73.159100 -5.348130 -0.000001 -0.000004 -70.279700 27.327100 -3.507360 -24.328900 0.000322 -0.000009 2.489440 8.252180 -16.858600 -22.291500 -0.000108 -0.000004 0.876593 5.276200 0.730089 -2.192480 -6.469440 -0.000000 -175.922000 0.277338 -4.971630 39.081100 -0.000007 -0.000012 0.228905 -0.572960 21.777800 40.985400 -0.000006 -0.000013 2.144850 8.760340 -71.708200 11.754300 -0.000000 0.000003 0.000408 0.160444 -10.069600 -2.192510 6.469440 -0.000001 -174.091000 8.324000 -179.410000 -39.081100 -0.002282 -0.040193 0.064308 -0.266868 12.870100 -40.985400 0.000008 0.000006 2.307270 1.095180 -68.944900 -11.754300 -0.000006 -0.000006 -0.010886 0.277809 -5.284900
0.000000 0.000000 0.000000 0.000000 0.000000 -0.000000 -1.186070 92.847200 -1.909060 86.769000 0.260019 0.892770 15.735700 0.000005 -0.000001 81.126700 87.822200 -78.955200 8.984550 -0.406207 -0.000000 -3.442250 -0.883771 4.317720 16.377300 -0.000001 -0.000001 3.706530 3.947010 -1.666970 6.456720 -0.000001 -0.000000 4.592390 4.978550 -6.115450 12.994200 -0.242716 4.980390 -92.913500 8.965080 -71.913500 5.348090 -0.000007 -0.000001 -72.400300 18.124500 3.698250 24.328600 0.000019 0.000005 15.329600 28.070400 -30.223300 22.291600 -0.000001 0.000005 -3.622560 5.106450 4.965440 12.994500 -0.242716 -4.980390 88.531600 4.855800 -73.151800 -5.348130 -0.000001 -0.000004 -70.307000 27.281400 -3.515630 -24.328900 0.000322 -0.000009 2.478450 8.130960 -17.022600 -22.291500 -0.000108 -0.000004 0.834712 5.276750 0.715040 -2.192480 -6.469440 -0.000000 -175.928000 0.201470 -4.953850 39.081100 -0.000007 -0.000012 0.230458 -0.577521 21.754800 40.985400 -0.000006 -0.000013 2.166410 8.738220 -71.746300 11.754300 -0.000000 0.000003 0.000375 0.161063 -10.044500 -2.192510 6.469440 -0.000001 -174.106000 8.257870 -179.410000 -39.081100 -0.002282 -0.040193 0.063196 -0.262422 12.850100 -40.985400 0.000008 0.000006 2.192780 1.129390 -68.906600 -11.754300 -0.000006 -0.000006 -0.010642 0.276039 -5.357300
0.000000 0.000000 0.000000 0.000000 0.000000 -0.000000 -1.144900 92.852500 -1.852980 86.789800 0.170840 0.777790 15.735700 0.000005 -0.000001 81.726000 87.854400 -79.560500 8.984550 -0.406207 -0.000000 -3.500380 -0.829977 4.306960 16.377300 -0.000001 -0.000001 3.649890 3.957670 -1.699110 6.456720 -0.000001 -0.000000 4.582380 4.985480 -6.174480 12.994200 -0.242716 4.980390 -92.914000 8.920920 -71.827400 5.348090 -0.000007 -0.000001 -72.186200 16.527300 3.840440 24.328600 0.000019 0.000005 15.669600 27.341900 -31.414300 22.291600 -0.000001 0.000005 -3.516100 5.097310 5.175210 12.994500 -0.242716 -4.980390 88.536900 4.836500 -73.146600 -5.348130 -0.000001 -0.000004 -70.357100 27.313300 -3.507940 -24.328900 0.000322 -0.000009 2.448690 7.997410 -17.092600 -22.291500 -0.000108 -0.000004 0.819906 5.280380 0.615809 -2.192480 -6.469440 -0.000000 -175.983000 0.146336 -4.971170 39.081100 -0.000007 -0.000012 0.227742 -0.573457 21.660400 40.985400 -0.000006 -0.000013 2.188440 8.681880 -71.742700 11.754300 -0.000000 0.000003 0.000406 0.160477 -10.068300 -2.192510 6.469440 -0.000001 -174.154000 8.219180 -179.459000 -39.081100 -0.002282 -0.040193 0.062943 -0.262392 12.799000 -40.985400 0.000008 0.000006 2.162020 1.186290 -68.926300 -11.754300 -0.000006 -0.000006 -0.010721 0.276617 -5.333670
0.000000 0.000000 0.000000 0.000000 0.000000 -0.000000 -1.133840 92.849500 -1.804400 86.752300 0.153781 0.770012 15.735700 0.000005 -0.000001 82.073700 87.850500 -79.892500 8.984550 -0.406207 -0.000000 -3.489220 -0.806610 4.339170 16.377300 -0.000001 -0.000001 3.589560 4.002320 -1.740720 6.456720 -0.000001 -0.000000 4.578090 4.986750 -6.324680 12.994200 -0.242716 4.980390 -92.945500 9.000370 -71.793900 5.348090 -0.000007 -0.000001 -71.672700 14.734100 3.922110 24.328600 0.000019 0.000005 15.946800 26.316900 -32.803400 22.291600 -0.000001 0.000005 -3.530460 5.091810 5.300950 12.994500 -0.242716 -4.980390 88.549500 4.789250 -73.128800 -5.348130 -0.000001 -0.000004 -70.433100 27.357500 -3.519910 -24.328900 0.000322 -0.000009 2.446980 7.989150 -17.097900 -22.291500 -0.000108 -0.000004 0.891414 5.277380 0.697676 -2.192480 -6.469440 -0.000000 -175.944000 0.083111 -4.952180 39.081100 -0.000007 -0.000012 0.230380 -0.579278 21.688200 40.985400 -0.000006 -0.000013 2.205600 8.725860 -71.833900 11.754300 -0.000000 0.000003 0.000389 0.160793 -10.055400 -2.192510 6.469440 -0.000001 -174.138000 8.188240 -179.417000 -39.081100 -0.002282 -0.040193 0.060962 -0.254223 12.772000 -40.985400 0.000008 0.000006 2.071800 1.210690 -68.937600 -11.754300 -0.000006 -0.000006 -0.011199 0.280054 -5.193010
0.000000 0.000000 0.000000 0.000000 0.000000 -0.000000 -1.127440 92.846600 -1.763920 86.754100 0.184691 0.730199 15.735700 0.000005 -0.000001 82.010900 87.846200 -79.829600 8.984550 -0.406207 -0.000000 -3.481250 -0.812322 4.339090 16.377300 -0.000001 -0.000001 3.482950 3.996310 -1.761390 6.456720 -0.000001 -0.000000 4.562490 5.016510 -6.574800 12.994200 -0.242716 4.980390 -92.998800 9.114280 -71.700500 5.348090 -0.000007 -0.000001 -70.843200 12.886400 3.977780 24.328600 0.000019 0.000005 16.301900 24.761700 -34.924600 22.291600 -0.000001 0.000005 -4.321120 5.085680 5.439280 12.994500 -0.242716 -4.980390 88.554300 4.773340 -73.128600 -5.348130 -0.000001 -0.000004 -70.487500 27.331200 -3.549520 -24.328900 0.000322 -0.000009 2.462720 8.064130 -17.051900 -22.291500 -0.000108 -0.000004 0.885034 5.275480 0.749480 -2.192480 -6.469440 -0.000000 -175.950000 0.046996 -4.961830 39.081100 -0.000007 -0.000012 0.230878 -0.580821 21.678400 40.985400 -0.000006 -0.000013 2.231150 8.784070 -71.843700 11.754300 -0.000000 0.000003 0.000492 0.158881 -10.133100 -2.192510 6.469440 -0.000001 -174.141000 8.180860 -179.429000 -39.081100 -0.002282 -0.040193 0.060799 -0.253752 12.760000 -40.985400 0.000008 0.000006 2.047280 1.190360 -68.921300 -11.754300 -0.000006 -0.000006 -0.010767 0.276952 -5.319970
